<mxfile host="app.diagrams.net" modified="2021-09-20T09:00:28.094Z" agent="5.0 (Macintosh; Intel Mac OS X 10_15_7) AppleWebKit/537.36 (KHTML, like Gecko) Chrome/93.0.4577.82 Safari/537.36" etag="ALzlw_3r382gjGAA49Vw" version="15.2.9" type="github">
  <diagram id="bij4xTs8n0YkoFqFcx8Z" name="Page-1">
    <mxGraphModel dx="719" dy="513" grid="1" gridSize="10" guides="1" tooltips="1" connect="1" arrows="1" fold="1" page="1" pageScale="1" pageWidth="1169" pageHeight="1654" math="0" shadow="0">
      <root>
        <mxCell id="0" />
        <mxCell id="1" parent="0" />
        <mxCell id="hsHibI7PJDo9FW2xieDH-1" value="开始" style="rounded=1;whiteSpace=wrap;html=1;" vertex="1" parent="1">
          <mxGeometry x="270" y="30" width="70" height="30" as="geometry" />
        </mxCell>
        <mxCell id="hsHibI7PJDo9FW2xieDH-2" value="输入要查找的元素key,&lt;br&gt;和hashTable的头结点H" style="shape=parallelogram;perimeter=parallelogramPerimeter;whiteSpace=wrap;html=1;fixedSize=1;" vertex="1" parent="1">
          <mxGeometry x="227.5" y="80" width="155" height="40" as="geometry" />
        </mxCell>
        <mxCell id="hsHibI7PJDo9FW2xieDH-3" style="edgeStyle=orthogonalEdgeStyle;rounded=0;orthogonalLoop=1;jettySize=auto;html=1;exitX=0.5;exitY=1;exitDx=0;exitDy=0;" edge="1" parent="1" source="hsHibI7PJDo9FW2xieDH-2" target="hsHibI7PJDo9FW2xieDH-2">
          <mxGeometry relative="1" as="geometry" />
        </mxCell>
        <mxCell id="hsHibI7PJDo9FW2xieDH-4" value="L = H-&amp;gt;theList[Hash(key,H-&amp;gt;tableSize)];&lt;br&gt;p = L-&amp;gt;next;" style="rounded=0;whiteSpace=wrap;html=1;" vertex="1" parent="1">
          <mxGeometry x="197.5" y="140" width="215" height="40" as="geometry" />
        </mxCell>
        <mxCell id="hsHibI7PJDo9FW2xieDH-5" value="p!=NULL &amp;amp;&amp;amp; p-&amp;gt;element!=key" style="rhombus;whiteSpace=wrap;html=1;" vertex="1" parent="1">
          <mxGeometry x="201.25" y="250" width="207.5" height="40" as="geometry" />
        </mxCell>
        <mxCell id="hsHibI7PJDo9FW2xieDH-6" value="p = p-&amp;gt;next;&lt;br&gt;p = NULL;" style="rounded=0;whiteSpace=wrap;html=1;" vertex="1" parent="1">
          <mxGeometry x="490" y="240" width="120" height="60" as="geometry" />
        </mxCell>
        <mxCell id="hsHibI7PJDo9FW2xieDH-7" value="return p;" style="rounded=0;whiteSpace=wrap;html=1;" vertex="1" parent="1">
          <mxGeometry x="254.38" y="330" width="101.25" height="40" as="geometry" />
        </mxCell>
        <mxCell id="hsHibI7PJDo9FW2xieDH-8" value="结束" style="rounded=1;whiteSpace=wrap;html=1;" vertex="1" parent="1">
          <mxGeometry x="269.37" y="410" width="70.63" height="30" as="geometry" />
        </mxCell>
        <mxCell id="hsHibI7PJDo9FW2xieDH-9" value="" style="endArrow=classic;html=1;exitX=0.5;exitY=1;exitDx=0;exitDy=0;" edge="1" parent="1" source="hsHibI7PJDo9FW2xieDH-1">
          <mxGeometry width="50" height="50" relative="1" as="geometry">
            <mxPoint x="380" y="320" as="sourcePoint" />
            <mxPoint x="305" y="80" as="targetPoint" />
          </mxGeometry>
        </mxCell>
        <mxCell id="hsHibI7PJDo9FW2xieDH-10" value="" style="endArrow=classic;html=1;exitX=0.5;exitY=1;exitDx=0;exitDy=0;entryX=0.5;entryY=0;entryDx=0;entryDy=0;" edge="1" parent="1" source="hsHibI7PJDo9FW2xieDH-2" target="hsHibI7PJDo9FW2xieDH-4">
          <mxGeometry width="50" height="50" relative="1" as="geometry">
            <mxPoint x="380" y="220" as="sourcePoint" />
            <mxPoint x="430" y="170" as="targetPoint" />
          </mxGeometry>
        </mxCell>
        <mxCell id="hsHibI7PJDo9FW2xieDH-11" value="" style="endArrow=classic;html=1;exitX=0.5;exitY=1;exitDx=0;exitDy=0;entryX=0.5;entryY=0;entryDx=0;entryDy=0;" edge="1" parent="1" source="hsHibI7PJDo9FW2xieDH-4" target="hsHibI7PJDo9FW2xieDH-5">
          <mxGeometry width="50" height="50" relative="1" as="geometry">
            <mxPoint x="380" y="220" as="sourcePoint" />
            <mxPoint x="430" y="170" as="targetPoint" />
          </mxGeometry>
        </mxCell>
        <mxCell id="hsHibI7PJDo9FW2xieDH-12" value="" style="endArrow=classic;html=1;exitX=0.5;exitY=1;exitDx=0;exitDy=0;entryX=0.5;entryY=0;entryDx=0;entryDy=0;" edge="1" parent="1" source="hsHibI7PJDo9FW2xieDH-5" target="hsHibI7PJDo9FW2xieDH-7">
          <mxGeometry width="50" height="50" relative="1" as="geometry">
            <mxPoint x="380" y="220" as="sourcePoint" />
            <mxPoint x="430" y="170" as="targetPoint" />
          </mxGeometry>
        </mxCell>
        <mxCell id="hsHibI7PJDo9FW2xieDH-13" value="" style="endArrow=classic;html=1;exitX=0.5;exitY=1;exitDx=0;exitDy=0;entryX=0.491;entryY=0;entryDx=0;entryDy=0;entryPerimeter=0;" edge="1" parent="1" source="hsHibI7PJDo9FW2xieDH-7" target="hsHibI7PJDo9FW2xieDH-8">
          <mxGeometry width="50" height="50" relative="1" as="geometry">
            <mxPoint x="380" y="340" as="sourcePoint" />
            <mxPoint x="430" y="290" as="targetPoint" />
          </mxGeometry>
        </mxCell>
        <mxCell id="hsHibI7PJDo9FW2xieDH-14" value="" style="endArrow=classic;html=1;entryX=0;entryY=0.5;entryDx=0;entryDy=0;" edge="1" parent="1" target="hsHibI7PJDo9FW2xieDH-6">
          <mxGeometry width="50" height="50" relative="1" as="geometry">
            <mxPoint x="410" y="270" as="sourcePoint" />
            <mxPoint x="430" y="290" as="targetPoint" />
          </mxGeometry>
        </mxCell>
        <mxCell id="hsHibI7PJDo9FW2xieDH-15" value="" style="endArrow=classic;html=1;exitX=0.5;exitY=0;exitDx=0;exitDy=0;" edge="1" parent="1" source="hsHibI7PJDo9FW2xieDH-6">
          <mxGeometry width="50" height="50" relative="1" as="geometry">
            <mxPoint x="380" y="340" as="sourcePoint" />
            <mxPoint x="310" y="220" as="targetPoint" />
            <Array as="points">
              <mxPoint x="550" y="220" />
            </Array>
          </mxGeometry>
        </mxCell>
        <mxCell id="hsHibI7PJDo9FW2xieDH-16" value="Yes" style="text;html=1;align=center;verticalAlign=middle;resizable=0;points=[];autosize=1;strokeColor=none;fillColor=none;" vertex="1" parent="1">
          <mxGeometry x="408.75" y="250" width="40" height="20" as="geometry" />
        </mxCell>
        <mxCell id="hsHibI7PJDo9FW2xieDH-17" value="No" style="text;html=1;align=center;verticalAlign=middle;resizable=0;points=[];autosize=1;strokeColor=none;fillColor=none;" vertex="1" parent="1">
          <mxGeometry x="310" y="290" width="30" height="20" as="geometry" />
        </mxCell>
      </root>
    </mxGraphModel>
  </diagram>
</mxfile>
